# xmcd
#
# Track frame offsets:
#	150
#	16369
#	33440
#	52762
#	71698
#	87437
#	103197
#	124384
#	145083
#	161592
#	178453
#
# Disc length: 2627 seconds
#
# Revision: 0
# Processed by: cddbd v1.5.1PL2 Copyright (c) Steve Scherf et al.
# Submitted via: audiograbber 1.83.01
#
DISCID=9a0a410b
DTITLE=Whitney Houston - Just Whitney...
DYEAR=2002
DGENRE=R&B
TTITLE0=Whatchulookinat
TTITLE1=Tell me no
TTITLE2=One of those days
TTITLE3=Things you say
TTITLE4=My love (Featuring Bobby Brown)
TTITLE5=Love that man
TTITLE6=On my own
TTITLE7=Dear John Letter
TTITLE8=Unashamed
TTITLE9=You light up my life
TTITLE10=Whatchulookinat (P. Diddy remix) (Featuring P. Diddy)
EXTD=
EXTT0=
EXTT1=
EXTT2=
EXTT3=
EXTT4=
EXTT5=
EXTT6=
EXTT7=
EXTT8=
EXTT9=
EXTT10=
PLAYORDER=
